
<svg width="25px" height="25px" viewBox="0 0 25 25" version="1.1" xmlns="http://www.w3.org/2000/svg" xmlns:xlink="http://www.w3.org/1999/xlink">
    <!-- Generator: Sketch 50.2 (55047) - http://www.bohemiancoding.com/sketch -->
    <desc>Created with Sketch.</desc>
    <defs></defs>
    <g id="Page-1" stroke="none" stroke-width="1" fill="none" fill-rule="evenodd">
        <g id="Group-18" transform="translate(-1548.000000, -410.000000)">
            <g id="Group-17" transform="translate(1549.000000, 411.000000)">
                <path d="M13.2727273,19 C11.4652499,19 10,15.8659933 10,12 C10,8.13400677 11.4652499,5 13.2727273,5 C13.6743889,5 14,5.36468442 14,5.81454545 L14,7.24795455 C14,7.6978156 13.6743889,8.06249998 13.2727273,8.06249998 C12.2560212,8.06249998 11.4318182,9.82537881 11.4318182,12 C11.4318182,14.1746212 12.2560212,15.9375 13.2727273,15.9375 C13.6743889,15.9375 14,16.3021844 14,16.7520455 L14,18.1854546 C14,18.6353156 13.6743889,19 13.2727273,19 Z" id="Combined-Shape" fill="#000000" fill-rule="nonzero" transform="translate(12.000000, 12.000000) scale(-1, 1) rotate(-30.000000) translate(-12.000000, -12.000000) "></path>
                <circle id="Oval" stroke="#000000" cx="11.5" cy="11.5" r="11.5"></circle>
            </g>
        </g>
    </g>
</svg>